<svg class="lds-gear-set" width="80px" height="80px" xmlns="http://www.w3.org/2000/svg" xmlns:xlink="http://www.w3.org/1999/xlink" viewBox="0 0 100 100" preserveAspectRatio="xMidYMid"><g transform="translate(50 50)"> <g transform="translate(-17 -17) scale(0.5)"> <g transform="rotate(150.143)">
<animateTransform attributeName="transform" type="rotate" values="0;360" keyTimes="0;1" dur="1.4s" begin="0s" repeatCount="indefinite"></animateTransform><path d="M37.3496987939662 -7 L47.3496987939662 -7 L47.3496987939662 7 L37.3496987939662 7 A38 38 0 0 1 31.359972760794346 21.46047782418268 L31.359972760794346 21.46047782418268 L38.431040572659825 28.531545636048154 L28.531545636048154 38.431040572659825 L21.46047782418268 31.359972760794346 A38 38 0 0 1 7.0000000000000036 37.3496987939662 L7.0000000000000036 37.3496987939662 L7.000000000000004 47.3496987939662 L-6.999999999999999 47.3496987939662 L-7 37.3496987939662 A38 38 0 0 1 -21.46047782418268 31.35997276079435 L-21.46047782418268 31.35997276079435 L-28.531545636048154 38.431040572659825 L-38.43104057265982 28.531545636048158 L-31.359972760794346 21.460477824182682 A38 38 0 0 1 -37.3496987939662 7.000000000000007 L-37.3496987939662 7.000000000000007 L-47.3496987939662 7.000000000000008 L-47.3496987939662 -6.9999999999999964 L-37.3496987939662 -6.999999999999997 A38 38 0 0 1 -31.35997276079435 -21.460477824182675 L-31.35997276079435 -21.460477824182675 L-38.431040572659825 -28.531545636048147 L-28.53154563604818 -38.4310405726598 L-21.4604778241827 -31.35997276079433 A38 38 0 0 1 -6.999999999999992 -37.3496987939662 L-6.999999999999992 -37.3496987939662 L-6.999999999999994 -47.3496987939662 L6.999999999999977 -47.3496987939662 L6.999999999999979 -37.3496987939662 A38 38 0 0 1 21.460477824182686 -31.359972760794342 L21.460477824182686 -31.359972760794342 L28.531545636048158 -38.43104057265982 L38.4310405726598 -28.53154563604818 L31.35997276079433 -21.4604778241827 A38 38 0 0 1 37.3496987939662 -6.999999999999995 M0 -23A23 23 0 1 0 0 23 A23 23 0 1 0 0 -23" fill="#a69159"></path></g></g> <g transform="translate(0 22) scale(0.4)"> <g transform="rotate(187.357)">
<animateTransform attributeName="transform" type="rotate" values="360;0" keyTimes="0;1" dur="1.4s" begin="-0.0875s" repeatCount="indefinite"></animateTransform><path d="M37.3496987939662 -7 L47.3496987939662 -7 L47.3496987939662 7 L37.3496987939662 7 A38 38 0 0 1 31.359972760794346 21.46047782418268 L31.359972760794346 21.46047782418268 L38.431040572659825 28.531545636048154 L28.531545636048154 38.431040572659825 L21.46047782418268 31.359972760794346 A38 38 0 0 1 7.0000000000000036 37.3496987939662 L7.0000000000000036 37.3496987939662 L7.000000000000004 47.3496987939662 L-6.999999999999999 47.3496987939662 L-7 37.3496987939662 A38 38 0 0 1 -21.46047782418268 31.35997276079435 L-21.46047782418268 31.35997276079435 L-28.531545636048154 38.431040572659825 L-38.43104057265982 28.531545636048158 L-31.359972760794346 21.460477824182682 A38 38 0 0 1 -37.3496987939662 7.000000000000007 L-37.3496987939662 7.000000000000007 L-47.3496987939662 7.000000000000008 L-47.3496987939662 -6.9999999999999964 L-37.3496987939662 -6.999999999999997 A38 38 0 0 1 -31.35997276079435 -21.460477824182675 L-31.35997276079435 -21.460477824182675 L-38.431040572659825 -28.531545636048147 L-28.53154563604818 -38.4310405726598 L-21.4604778241827 -31.35997276079433 A38 38 0 0 1 -6.999999999999992 -37.3496987939662 L-6.999999999999992 -37.3496987939662 L-6.999999999999994 -47.3496987939662 L6.999999999999977 -47.3496987939662 L6.999999999999979 -37.3496987939662 A38 38 0 0 1 21.460477824182686 -31.359972760794342 L21.460477824182686 -31.359972760794342 L28.531545636048158 -38.43104057265982 L38.4310405726598 -28.53154563604818 L31.35997276079433 -21.4604778241827 A38 38 0 0 1 37.3496987939662 -6.999999999999995 M0 -23A23 23 0 1 0 0 23 A23 23 0 1 0 0 -23" fill="#293439"></path></g></g> <g transform="translate(28 4) scale(0.3)"> <g transform="rotate(172.643)">
<animateTransform attributeName="transform" type="rotate" values="0;360" keyTimes="0;1" dur="1.4s" begin="-0.0875s" repeatCount="indefinite"></animateTransform><path d="M37.3496987939662 -7 L47.3496987939662 -7 L47.3496987939662 7 L37.3496987939662 7 A38 38 0 0 1 31.359972760794346 21.46047782418268 L31.359972760794346 21.46047782418268 L38.431040572659825 28.531545636048154 L28.531545636048154 38.431040572659825 L21.46047782418268 31.359972760794346 A38 38 0 0 1 7.0000000000000036 37.3496987939662 L7.0000000000000036 37.3496987939662 L7.000000000000004 47.3496987939662 L-6.999999999999999 47.3496987939662 L-7 37.3496987939662 A38 38 0 0 1 -21.46047782418268 31.35997276079435 L-21.46047782418268 31.35997276079435 L-28.531545636048154 38.431040572659825 L-38.43104057265982 28.531545636048158 L-31.359972760794346 21.460477824182682 A38 38 0 0 1 -37.3496987939662 7.000000000000007 L-37.3496987939662 7.000000000000007 L-47.3496987939662 7.000000000000008 L-47.3496987939662 -6.9999999999999964 L-37.3496987939662 -6.999999999999997 A38 38 0 0 1 -31.35997276079435 -21.460477824182675 L-31.35997276079435 -21.460477824182675 L-38.431040572659825 -28.531545636048147 L-28.53154563604818 -38.4310405726598 L-21.4604778241827 -31.35997276079433 A38 38 0 0 1 -6.999999999999992 -37.3496987939662 L-6.999999999999992 -37.3496987939662 L-6.999999999999994 -47.3496987939662 L6.999999999999977 -47.3496987939662 L6.999999999999979 -37.3496987939662 A38 38 0 0 1 21.460477824182686 -31.359972760794342 L21.460477824182686 -31.359972760794342 L28.531545636048158 -38.43104057265982 L38.4310405726598 -28.53154563604818 L31.35997276079433 -21.4604778241827 A38 38 0 0 1 37.3496987939662 -6.999999999999995 M0 -23A23 23 0 1 0 0 23 A23 23 0 1 0 0 -23" fill="#c84445"></path></g></g></g></svg>